<svg width="92" height="92" viewBox="0 0 92 92" fill="none" xmlns="http://www.w3.org/2000/svg">
<path d="M54.9948 17.1811C58.1951 18.5069 60.3763 22.4923 60.8143 28.6555C61.2451 34.7188 59.9234 42.4148 56.6729 50.2623C53.4222 58.11 48.9148 64.4871 44.3226 68.4699C39.6548 72.5182 35.2944 73.794 32.094 72.4686C28.8936 71.1429 26.7126 67.1574 26.2745 60.9941C25.8436 54.9307 27.1647 47.2338 30.4154 39.3861C33.666 31.5385 38.174 25.1625 42.7662 21.1798C47.4341 17.1313 51.7944 15.8554 54.9948 17.1811Z" stroke="url(#paint0_linear_5_484)" stroke-width="3"/>
<path d="M56.4462 17.7822C59.6465 19.1079 61.8268 23.0931 62.2648 29.2563C62.6957 35.3196 61.3749 43.0157 58.1243 50.8634C54.8736 58.7111 50.3653 65.0878 45.7731 69.0706C41.1055 73.1187 36.7457 74.3951 33.5454 73.0697C30.345 71.744 28.164 67.7585 27.7259 61.5952C27.295 55.5318 28.6161 47.8349 31.8668 39.9872C35.1174 32.1396 39.6255 25.7636 44.2176 21.7809C48.8855 17.7324 53.2458 16.4565 56.4462 17.7822Z" stroke="url(#paint1_linear_5_484)" stroke-width="3"/>
<path d="M57.8978 18.3834C61.0981 19.7092 63.2784 23.6943 63.7164 29.8575C64.1473 35.9208 62.8265 43.617 59.5759 51.4646C56.3252 59.3124 51.8169 65.6891 47.2247 69.6718C42.5571 73.72 38.1973 74.9963 34.997 73.6709C31.7966 72.3453 29.6156 68.3597 29.1775 62.1964C28.7466 56.1331 30.0677 48.4362 33.3184 40.5884C36.569 32.7408 41.0771 26.3648 45.6692 22.3821C50.3371 18.3336 54.6974 17.0578 57.8978 18.3834Z" stroke="url(#paint2_linear_5_484)" stroke-width="3"/>
<path d="M59.3659 18.9915C62.5662 20.3173 64.7474 24.3028 65.1854 30.466C65.6162 36.5293 64.2945 44.2252 61.044 52.0727C57.7933 59.9205 53.2859 66.2976 48.6937 70.2803C44.0259 74.3287 39.6654 75.6045 36.465 74.279C33.2647 72.9534 31.0837 68.9678 30.6456 62.8046C30.2147 56.7412 31.5358 49.0443 34.7865 41.1965C38.0371 33.3489 42.5451 26.9729 47.1372 22.9902C51.8052 18.9417 56.1655 17.6659 59.3659 18.9915Z" stroke="url(#paint3_linear_5_484)" stroke-width="3"/>
<path d="M32.0943 18.9913C35.2947 17.6659 39.6552 18.9417 44.3229 22.9901C48.915 26.9728 53.4222 33.3493 56.6728 41.1968C59.9234 49.0445 61.2455 56.741 60.8145 62.8044C60.3765 68.9677 58.1953 72.9531 54.9951 74.2789C51.7947 75.6045 47.4343 74.3285 42.7664 70.2802C38.1742 66.2974 33.6659 59.9207 30.4153 52.073C27.1647 44.2253 25.8439 36.5291 26.2748 30.4658C26.7128 24.3024 28.8939 20.317 32.0943 18.9913Z" stroke="url(#paint4_linear_5_484)" stroke-width="3"/>
<path d="M33.5456 18.39C36.746 17.0646 41.1064 18.3404 45.7742 22.3887C50.3663 26.3715 54.8735 32.7479 58.1241 40.5954C61.3747 48.4432 62.6967 56.1397 62.2658 62.2031C61.8278 68.3663 59.6466 72.3518 56.4464 73.6776C53.246 75.0032 48.8855 73.7272 44.2177 69.6789C39.6255 65.6961 35.1172 59.3194 31.8666 51.4716C28.616 43.624 27.2952 35.9278 27.7261 29.8645C28.1641 23.7011 30.3452 19.7157 33.5456 18.39Z" stroke="url(#paint5_linear_5_484)" stroke-width="3"/>
<path d="M34.9971 17.7888C38.1975 16.4634 42.558 17.7392 47.2258 21.7875C51.8178 25.7703 56.325 32.1468 59.5756 39.9942C62.8262 47.842 64.1483 55.5385 63.7174 61.6019C63.2794 67.7651 61.0981 71.7506 57.8979 73.0764C54.6975 74.402 50.3371 73.126 45.6692 69.0777C41.0771 65.0949 36.5688 58.7182 33.3181 50.8704C30.0676 43.0228 28.7467 35.3266 29.1776 29.2633C29.6157 23.0999 31.7967 19.1145 34.9971 17.7888Z" stroke="url(#paint6_linear_5_484)" stroke-width="3"/>
<path d="M36.4652 17.1807C39.6656 15.8552 44.0261 17.131 48.6939 21.1794C53.2859 25.1621 57.7931 31.5386 61.0437 39.3861C64.2943 47.2338 65.6164 54.9303 65.1854 60.9937C64.7474 67.157 62.5662 71.1424 59.366 72.4682C56.1656 73.7938 51.8052 72.5178 47.1373 68.4695C42.5452 64.4867 38.0368 58.11 34.7862 50.2623C31.5357 42.4146 30.2148 34.7185 30.6457 28.6551C31.0838 22.4917 33.2648 18.5063 36.4652 17.1807Z" stroke="url(#paint7_linear_5_484)" stroke-width="3"/>
<path d="M17.1811 36.4646C18.5069 33.2643 22.492 31.0841 28.6552 30.646C34.7185 30.2151 42.4146 31.536 50.2623 34.7866C58.1101 38.0372 64.4868 42.5456 68.4695 47.1377C72.5176 51.8054 73.794 56.1652 72.4686 59.3655C71.1429 62.5659 67.1574 64.7469 60.9941 65.185C54.9307 65.6159 47.2338 64.2947 39.3861 61.0441C31.5385 57.7934 25.1625 53.2854 21.1798 48.6933C17.1313 44.0253 15.8554 39.665 17.1811 36.4646Z" stroke="url(#paint8_linear_5_484)" stroke-width="3"/>
<path d="M17.7821 35.0131C19.1079 31.8129 23.093 29.6326 29.2562 29.1946C35.3195 28.7637 43.0157 30.0845 50.8633 33.3351C58.7111 36.5858 65.0878 41.0941 69.0705 45.6863C73.1187 50.3539 74.395 54.7137 73.0696 57.914C71.744 61.1144 67.7584 63.2954 61.5951 63.7335C55.5317 64.1644 47.8349 62.8432 39.9871 59.5926C32.1395 56.342 25.7635 51.8339 21.7808 47.2418C17.7323 42.5739 16.4564 38.2136 17.7821 35.0131Z" stroke="url(#paint9_linear_5_484)" stroke-width="3"/>
<path d="M18.3835 33.5617C19.7093 30.3614 23.6945 28.1811 29.8576 27.7431C35.921 27.3122 43.6171 28.6331 51.4648 31.8836C59.3125 35.1343 65.6892 39.6426 69.672 44.2348C73.7201 48.9025 74.9964 53.2622 73.671 56.4626C72.3454 59.6629 68.3598 61.8439 62.1966 62.282C56.1332 62.7129 48.4363 61.3918 40.5885 58.1411C32.7409 54.8905 26.365 50.3824 22.3822 45.7903C18.3338 41.1224 17.0579 36.7621 18.3835 33.5617Z" stroke="url(#paint10_linear_5_484)" stroke-width="3"/>
<path d="M18.9915 32.0934C20.3173 28.8932 24.3024 26.7129 30.4656 26.2749C36.5289 25.844 44.2251 27.1648 52.0727 30.4154C59.9205 33.6661 66.2972 38.1744 70.2799 42.7666C74.3281 47.4342 75.6044 51.794 74.279 54.9943C72.9534 58.1947 68.9678 60.3757 62.8045 60.8138C56.7411 61.2447 49.0443 59.9236 41.1965 56.6729C33.3489 53.4223 26.9729 48.9142 22.9902 44.3221C18.9417 39.6542 17.6659 35.2939 18.9915 32.0934Z" stroke="url(#paint11_linear_5_484)" stroke-width="3"/>
<path d="M18.9913 59.3652C17.6659 56.1648 18.9421 51.8052 22.9904 47.1375C26.9731 42.5453 33.3491 38.0373 41.1967 34.7867C49.0445 31.5361 56.7413 30.2149 62.8047 30.6459C68.9677 31.0839 72.9531 33.2643 74.2788 36.4644C75.6045 39.6648 74.3285 44.0252 70.2801 48.6931C66.2974 53.2853 59.9207 57.7936 52.0729 61.0442C44.2253 64.2948 36.5291 65.6156 30.4658 65.1847C24.3023 64.7467 20.317 62.5656 18.9913 59.3652Z" stroke="url(#paint12_linear_5_484)" stroke-width="3"/>
<path d="M18.3901 57.9138C17.0647 54.7134 18.3409 50.3538 22.3892 45.6861C26.3719 41.094 32.7479 36.586 40.5955 33.3353C48.4433 30.0847 56.1401 28.7636 62.2035 29.1945C68.3665 29.6326 72.3519 31.8129 73.6776 35.0131C75.0033 38.2134 73.7273 42.5739 69.6789 47.2417C65.6962 51.8339 59.3195 56.3422 51.4717 59.5928C43.6241 62.8434 35.9279 64.1642 29.8646 63.7333C23.7011 63.2953 19.7158 61.1143 18.3901 57.9138Z" stroke="url(#paint13_linear_5_484)" stroke-width="3"/>
<path d="M17.7887 56.4623C16.4633 53.2619 17.7395 48.9023 21.7878 44.2346C25.7705 39.6425 32.1465 35.1345 39.9941 31.8838C47.8419 28.6332 55.5388 27.3121 61.6022 27.743C67.7652 28.1811 71.7505 30.3614 73.0763 33.5615C74.4019 36.7619 73.1259 41.1223 69.0776 45.7902C65.0948 50.3824 58.7181 54.8907 50.8703 58.1413C43.0227 61.3919 35.3265 62.7127 29.2632 62.2818C23.0998 61.8438 19.1144 59.6627 17.7887 56.4623Z" stroke="url(#paint14_linear_5_484)" stroke-width="3"/>
<path d="M17.1807 54.9941C15.8553 51.7938 17.1315 47.4342 21.1798 42.7664C25.1625 38.1743 31.5385 33.6663 39.3861 30.4157C47.2339 27.165 54.9307 25.8439 60.9941 26.2748C67.1571 26.7129 71.1425 28.8932 72.4682 32.0934C73.7939 35.2938 72.5179 39.6542 68.4695 44.322C64.4868 48.9142 58.1101 53.4225 50.2623 56.6731C42.4147 59.9237 34.7185 61.2445 28.6552 60.8136C22.4917 60.3756 18.5064 58.1946 17.1807 54.9941Z" stroke="url(#paint15_linear_5_484)" stroke-width="3"/>
<defs>
<linearGradient id="paint0_linear_5_484" x1="55.5685" y1="15.7951" x2="31.5198" y2="73.8539" gradientUnits="userSpaceOnUse">
<stop stop-color="white"/>
<stop offset="1" stop-color="#14C3FE"/>
</linearGradient>
<linearGradient id="paint1_linear_5_484" x1="57.02" y1="16.3962" x2="32.9713" y2="74.455" gradientUnits="userSpaceOnUse">
<stop stop-color="white"/>
<stop offset="1" stop-color="#14C3FE"/>
</linearGradient>
<linearGradient id="paint2_linear_5_484" x1="58.4716" y1="16.9975" x2="34.4229" y2="75.0563" gradientUnits="userSpaceOnUse">
<stop stop-color="white"/>
<stop offset="1" stop-color="#14C3FE"/>
</linearGradient>
<linearGradient id="paint3_linear_5_484" x1="59.9396" y1="17.6056" x2="35.8909" y2="75.6644" gradientUnits="userSpaceOnUse">
<stop stop-color="white"/>
<stop offset="1" stop-color="#14C3FE"/>
</linearGradient>
<linearGradient id="paint4_linear_5_484" x1="31.5199" y1="17.6057" x2="55.5687" y2="75.6645" gradientUnits="userSpaceOnUse">
<stop stop-color="white"/>
<stop offset="1" stop-color="#14C3FE"/>
</linearGradient>
<linearGradient id="paint5_linear_5_484" x1="32.9712" y1="17.0043" x2="57.02" y2="75.0631" gradientUnits="userSpaceOnUse">
<stop stop-color="white"/>
<stop offset="1" stop-color="#14C3FE"/>
</linearGradient>
<linearGradient id="paint6_linear_5_484" x1="34.4228" y1="16.4031" x2="58.4715" y2="74.4619" gradientUnits="userSpaceOnUse">
<stop stop-color="white"/>
<stop offset="1" stop-color="#14C3FE"/>
</linearGradient>
<linearGradient id="paint7_linear_5_484" x1="35.8909" y1="15.795" x2="59.9396" y2="73.8538" gradientUnits="userSpaceOnUse">
<stop stop-color="white"/>
<stop offset="1" stop-color="#14C3FE"/>
</linearGradient>
<linearGradient id="paint8_linear_5_484" x1="15.7951" y1="35.8909" x2="73.8539" y2="59.9396" gradientUnits="userSpaceOnUse">
<stop stop-color="white"/>
<stop offset="1" stop-color="#14C3FE"/>
</linearGradient>
<linearGradient id="paint9_linear_5_484" x1="16.3962" y1="34.4394" x2="74.455" y2="58.4882" gradientUnits="userSpaceOnUse">
<stop stop-color="white"/>
<stop offset="1" stop-color="#14C3FE"/>
</linearGradient>
<linearGradient id="paint10_linear_5_484" x1="16.9976" y1="32.9879" x2="75.0564" y2="57.0367" gradientUnits="userSpaceOnUse">
<stop stop-color="white"/>
<stop offset="1" stop-color="#14C3FE"/>
</linearGradient>
<linearGradient id="paint11_linear_5_484" x1="17.6056" y1="31.5197" x2="75.6644" y2="55.5685" gradientUnits="userSpaceOnUse">
<stop stop-color="white"/>
<stop offset="1" stop-color="#14C3FE"/>
</linearGradient>
<linearGradient id="paint12_linear_5_484" x1="17.6056" y1="59.9395" x2="75.6644" y2="35.8908" gradientUnits="userSpaceOnUse">
<stop stop-color="white"/>
<stop offset="1" stop-color="#14C3FE"/>
</linearGradient>
<linearGradient id="paint13_linear_5_484" x1="17.0044" y1="58.4882" x2="75.0632" y2="34.4394" gradientUnits="userSpaceOnUse">
<stop stop-color="white"/>
<stop offset="1" stop-color="#14C3FE"/>
</linearGradient>
<linearGradient id="paint14_linear_5_484" x1="16.403" y1="57.0367" x2="74.4618" y2="32.9879" gradientUnits="userSpaceOnUse">
<stop stop-color="white"/>
<stop offset="1" stop-color="#14C3FE"/>
</linearGradient>
<linearGradient id="paint15_linear_5_484" x1="15.795" y1="55.5685" x2="73.8538" y2="31.5197" gradientUnits="userSpaceOnUse">
<stop stop-color="white"/>
<stop offset="1" stop-color="#14C3FE"/>
</linearGradient>
</defs>
</svg>
