<svg width="113" height="59" viewBox="0 0 113 59" fill="none" xmlns="http://www.w3.org/2000/svg">
<path d="M3.37428 28C3.15428 28 2.98428 27.94 2.86428 27.82C2.74428 27.68 2.68428 27.51 2.68428 27.31V7.69001C2.68428 7.49001 2.74428 7.33001 2.86428 7.21001C2.98428 7.07001 3.15428 7.00001 3.37428 7.00001H4.96428C5.16428 7.00001 5.32428 7.07001 5.44428 7.21001C5.56428 7.33001 5.62428 7.49001 5.62428 7.69001V25.39H15.6143C15.8343 25.39 16.0043 25.46 16.1243 25.6C16.2443 25.72 16.3043 25.89 16.3043 26.11V27.31C16.3043 27.51 16.2443 27.68 16.1243 27.82C16.0043 27.94 15.8343 28 15.6143 28H3.37428ZM21.7786 28C21.5586 28 21.3886 27.94 21.2686 27.82C21.1486 27.68 21.0886 27.51 21.0886 27.31V7.72001C21.0886 7.50001 21.1486 7.33001 21.2686 7.21001C21.3886 7.07001 21.5586 7.00001 21.7786 7.00001H34.1686C34.3886 7.00001 34.5586 7.07001 34.6786 7.21001C34.7986 7.33001 34.8586 7.50001 34.8586 7.72001V8.86001C34.8586 9.08001 34.7986 9.25001 34.6786 9.37001C34.5586 9.49001 34.3886 9.55001 34.1686 9.55001H23.9686V16.12H33.5086C33.7286 16.12 33.8986 16.19 34.0186 16.33C34.1386 16.45 34.1986 16.62 34.1986 16.84V17.95C34.1986 18.15 34.1386 18.32 34.0186 18.46C33.8986 18.58 33.7286 18.64 33.5086 18.64H23.9686V25.45H34.4086C34.6286 25.45 34.7986 25.51 34.9186 25.63C35.0386 25.75 35.0986 25.92 35.0986 26.14V27.31C35.0986 27.51 35.0386 27.68 34.9186 27.82C34.7986 27.94 34.6286 28 34.4086 28H21.7786ZM41.4719 28C41.2719 28 41.1019 27.94 40.9619 27.82C40.8419 27.68 40.7819 27.51 40.7819 27.31V7.72001C40.7819 7.50001 40.8419 7.33001 40.9619 7.21001C41.1019 7.07001 41.2719 7.00001 41.4719 7.00001H42.9719C43.2119 7.00001 43.3919 7.06001 43.5119 7.18002C43.6319 7.30001 43.7019 7.40001 43.7219 7.48001L50.0819 19.6L56.4719 7.48001C56.5119 7.40001 56.5819 7.30001 56.6819 7.18002C56.8019 7.06001 56.9819 7.00001 57.2219 7.00001H58.6919C58.9119 7.00001 59.0819 7.07001 59.2019 7.21001C59.3419 7.33001 59.4119 7.50001 59.4119 7.72001V27.31C59.4119 27.51 59.3419 27.68 59.2019 27.82C59.0819 27.94 58.9119 28 58.6919 28H57.2219C57.0219 28 56.8519 27.94 56.7119 27.82C56.5919 27.68 56.5319 27.51 56.5319 27.31V12.55L51.5219 22.33C51.4419 22.53 51.3219 22.69 51.1619 22.81C51.0019 22.91 50.8019 22.96 50.5619 22.96H49.6319C49.3719 22.96 49.1619 22.91 49.0019 22.81C48.8619 22.69 48.7419 22.53 48.6419 22.33L43.6319 12.55V27.31C43.6319 27.51 43.5619 27.68 43.4219 27.82C43.3019 27.94 43.1419 28 42.9419 28H41.4719ZM66.7903 28C66.5703 28 66.4003 27.94 66.2803 27.82C66.1603 27.68 66.1003 27.51 66.1003 27.31V7.72001C66.1003 7.50001 66.1603 7.33001 66.2803 7.21001C66.4003 7.07001 66.5703 7.00001 66.7903 7.00001H74.4103C75.8903 7.00001 77.1703 7.24001 78.2503 7.72001C79.3503 8.20001 80.2003 8.92001 80.8003 9.88001C81.4003 10.82 81.7003 12 81.7003 13.42C81.7003 14.84 81.4003 16.02 80.8003 16.96C80.2003 17.9 79.3503 18.61 78.2503 19.09C77.1703 19.57 75.8903 19.81 74.4103 19.81H69.1003V27.31C69.1003 27.51 69.0303 27.68 68.8903 27.82C68.7703 27.94 68.6003 28 68.3803 28H66.7903ZM69.0703 17.29H74.2603C75.7403 17.29 76.8503 16.96 77.5903 16.3C78.3303 15.64 78.7003 14.68 78.7003 13.42C78.7003 12.18 78.3403 11.22 77.6203 10.54C76.9003 9.86001 75.7803 9.52001 74.2603 9.52001H69.0703V17.29ZM87.5383 28C87.3183 28 87.1483 27.94 87.0283 27.82C86.9083 27.68 86.8483 27.51 86.8483 27.31V7.69001C86.8483 7.49001 86.9083 7.33001 87.0283 7.21001C87.1483 7.07001 87.3183 7.00001 87.5383 7.00001H89.1283C89.3283 7.00001 89.4883 7.07001 89.6083 7.21001C89.7483 7.33001 89.8183 7.49001 89.8183 7.69001V27.31C89.8183 27.51 89.7483 27.68 89.6083 27.82C89.4883 27.94 89.3283 28 89.1283 28H87.5383ZM95.2915 28C95.1315 28 94.9815 27.94 94.8415 27.82C94.7215 27.7 94.6615 27.56 94.6615 27.4C94.6615 27.32 94.6715 27.25 94.6915 27.19C94.7315 27.11 94.7615 27.05 94.7815 27.01L101.651 17.32L95.1115 7.99001C95.0515 7.87001 95.0215 7.74001 95.0215 7.60002C95.0215 7.44001 95.0815 7.30001 95.2015 7.18002C95.3215 7.06001 95.4615 7.00001 95.6215 7.00001H97.4215C97.6215 7.00001 97.7815 7.05001 97.9015 7.15001C98.0215 7.23001 98.1315 7.35001 98.2315 7.51001L103.511 15.01L108.761 7.51001C108.841 7.35001 108.941 7.23001 109.061 7.15001C109.201 7.05001 109.361 7.00001 109.541 7.00001H111.251C111.411 7.00001 111.551 7.06001 111.671 7.18002C111.791 7.30001 111.851 7.44001 111.851 7.60002C111.851 7.74001 111.811 7.87001 111.731 7.99001L105.281 17.35L112.121 27.01C112.161 27.05 112.191 27.11 112.211 27.19C112.231 27.25 112.241 27.32 112.241 27.4C112.241 27.56 112.181 27.7 112.061 27.82C111.941 27.94 111.791 28 111.611 28H109.781C109.601 28 109.441 27.95 109.301 27.85C109.181 27.75 109.071 27.64 108.971 27.52L103.391 19.72L97.8415 27.52C97.7415 27.64 97.6315 27.75 97.5115 27.85C97.3915 27.95 97.2315 28 97.0315 28H95.2915Z" fill="#F8FAFC"/>
<path d="M7.97465 54.204C7.10198 54.204 6.28032 54.0595 5.50965 53.7705C4.74465 53.4815 4.06748 53.0622 3.47815 52.5125C2.89448 51.9628 2.43548 51.2942 2.10115 50.5065C1.76682 49.7188 1.59965 48.8263 1.59965 47.829C1.59965 46.8713 1.76682 46.0015 2.10115 45.2195C2.43548 44.4318 2.89448 43.7547 3.47815 43.188C4.06748 42.6213 4.74465 42.185 5.50965 41.879C6.28032 41.573 7.10198 41.42 7.97465 41.42C8.46198 41.42 8.99465 41.4738 9.57265 41.5815C10.1563 41.6892 10.7457 41.8847 11.3407 42.168L10.8987 43.273C10.298 43.0067 9.75682 42.8395 9.27515 42.7715C8.79915 42.6978 8.36565 42.661 7.97465 42.661C7.39098 42.661 6.82148 42.7687 6.26615 42.984C5.71082 43.1937 5.21215 43.5138 4.77015 43.9445C4.33382 44.3695 3.98532 44.905 3.72465 45.551C3.46398 46.197 3.33365 46.9563 3.33365 47.829C3.33365 48.696 3.46398 49.4525 3.72465 50.0985C3.98532 50.7445 4.33382 51.28 4.77015 51.705C5.21215 52.13 5.71082 52.4502 6.26615 52.6655C6.82148 52.8752 7.39098 52.98 7.97465 52.98C8.22398 52.98 8.51015 52.963 8.83315 52.929C9.15615 52.8893 9.50465 52.81 9.87865 52.691V48.271H11.4427V53.371C11.0347 53.5863 10.6238 53.7563 10.2102 53.881C9.80215 54 9.40832 54.0822 9.02865 54.1275C8.64898 54.1785 8.29765 54.204 7.97465 54.204ZM27.0747 54V41.794C27.4997 41.709 27.8992 41.6382 28.2732 41.5815C28.6472 41.5248 29.0183 41.4823 29.3867 41.454C29.755 41.42 30.146 41.403 30.5597 41.403C31.472 41.403 32.2625 41.5702 32.9312 41.9045C33.6055 42.2332 34.1268 42.6752 34.4952 43.2305C34.8635 43.7858 35.0477 44.395 35.0477 45.058C35.0477 45.7437 34.8578 46.3443 34.4782 46.86C34.0985 47.3757 33.614 47.7837 33.0247 48.084L32.6167 48.22L32.9567 48.356C33.376 48.6337 33.699 48.9765 33.9257 49.3845C34.1523 49.7925 34.3365 50.2458 34.4782 50.7445C34.6198 51.2375 34.7643 51.7617 34.9117 52.317C35.059 52.8667 35.263 53.4277 35.5237 54H33.8237C33.597 53.5127 33.4157 52.9942 33.2797 52.4445C33.1437 51.8892 33.002 51.3537 32.8547 50.838C32.7073 50.3223 32.509 49.869 32.2597 49.478C32.016 49.0813 31.6703 48.798 31.2227 48.628C30.8997 48.662 30.588 48.6705 30.2877 48.6535C29.993 48.6308 29.687 48.5827 29.3697 48.509C29.4547 48.3163 29.568 48.1435 29.7097 47.9905C29.857 47.8318 30.027 47.7072 30.2197 47.6165C30.4123 47.5258 30.6277 47.4777 30.8657 47.472C31.2567 47.4607 31.6392 47.3502 32.0132 47.1405C32.3928 46.9308 32.7073 46.6447 32.9567 46.282C33.206 45.9193 33.3307 45.5057 33.3307 45.041C33.3307 44.5933 33.206 44.1882 32.9567 43.8255C32.7073 43.4628 32.373 43.1767 31.9537 42.967C31.5343 42.7517 31.0697 42.644 30.5597 42.644C30.248 42.644 29.959 42.6497 29.6927 42.661C29.432 42.6723 29.0977 42.7177 28.6897 42.797V54H27.0747ZM56.6791 54.238C55.6195 54.238 54.6561 53.983 53.7891 53.473C52.9221 52.9573 52.2308 52.2207 51.7151 51.263C51.2051 50.2997 50.9501 49.1493 50.9501 47.812C50.9501 46.7297 51.1201 45.7862 51.4601 44.9815C51.8058 44.1768 52.2591 43.5082 52.8201 42.9755C53.3811 42.4428 53.9988 42.0462 54.6731 41.7855C55.3475 41.5192 56.0161 41.386 56.6791 41.386C57.6028 41.386 58.4188 41.556 59.1271 41.896C59.8411 42.2303 60.4418 42.695 60.9291 43.29C61.4165 43.8793 61.7848 44.5622 62.0341 45.3385C62.2835 46.1092 62.4081 46.9337 62.4081 47.812C62.4081 48.7923 62.2551 49.6792 61.9491 50.4725C61.6488 51.2602 61.2323 51.9345 60.6996 52.4955C60.167 53.0565 59.555 53.4872 58.8636 53.7875C58.178 54.0878 57.4498 54.238 56.6791 54.238ZM56.6791 53.014C57.4781 53.014 58.178 52.7845 58.7786 52.3255C59.3793 51.8608 59.844 51.2347 60.1726 50.447C60.507 49.6593 60.6741 48.781 60.6741 47.812C60.6741 46.7467 60.4928 45.8258 60.1301 45.0495C59.7731 44.2732 59.2915 43.6753 58.6851 43.256C58.0788 42.8367 57.4101 42.627 56.6791 42.627C55.9481 42.627 55.2795 42.8367 54.6731 43.256C54.0668 43.6753 53.5823 44.2732 53.2196 45.0495C52.8626 45.8258 52.6841 46.7467 52.6841 47.812C52.6841 48.5827 52.7833 49.2853 52.9816 49.92C53.18 50.5547 53.4576 51.1043 53.8146 51.569C54.1773 52.028 54.6023 52.385 55.0896 52.64C55.577 52.8893 56.1068 53.014 56.6791 53.014ZM83.1314 54.238C82.1681 54.238 81.3436 54.0397 80.6579 53.643C79.9779 53.2407 79.4566 52.6797 79.0939 51.96C78.7369 51.2403 78.5584 50.4017 78.5584 49.444V41.641H80.1564V49.716C80.1564 50.719 80.4256 51.5208 80.9639 52.1215C81.5079 52.7165 82.2304 53.014 83.1314 53.014C84.0324 53.014 84.7521 52.7165 85.2904 52.1215C85.8344 51.5208 86.1064 50.719 86.1064 49.716V41.641H87.7044V49.444C87.7044 50.4017 87.5117 51.2403 87.1264 51.96C86.7411 52.6797 86.2027 53.2407 85.5114 53.643C84.8257 54.0397 84.0324 54.238 83.1314 54.238ZM104.149 54V41.76C104.574 41.675 104.974 41.607 105.348 41.556C105.722 41.505 106.093 41.471 106.461 41.454C106.829 41.4313 107.22 41.42 107.634 41.42C108.546 41.42 109.337 41.59 110.006 41.93C110.68 42.2643 111.201 42.7148 111.57 43.2815C111.938 43.8482 112.122 44.4743 112.122 45.16C112.122 45.8853 111.932 46.5115 111.553 47.0385C111.173 47.5598 110.68 47.9735 110.074 48.2795C109.467 48.5798 108.824 48.7583 108.144 48.815C107.9 48.8377 107.634 48.8433 107.345 48.832C107.062 48.815 106.761 48.764 106.444 48.679C106.529 48.4863 106.642 48.3135 106.784 48.1605C106.931 48.0018 107.101 47.8772 107.294 47.7865C107.487 47.6902 107.702 47.642 107.94 47.642C108.331 47.642 108.714 47.5372 109.088 47.3275C109.467 47.1122 109.782 46.8175 110.031 46.4435C110.28 46.0695 110.405 45.6417 110.405 45.16C110.405 44.684 110.28 44.259 110.031 43.885C109.782 43.5053 109.447 43.2078 109.028 42.9925C108.609 42.7715 108.144 42.661 107.634 42.661C107.322 42.661 107.008 42.6695 106.691 42.6865C106.379 42.7035 106.07 42.729 105.764 42.763V54H104.149Z" fill="#F8FAFC"/>
</svg>
