<svg width="442" height="75" viewBox="0 0 442 75" fill="none" xmlns="http://www.w3.org/2000/svg">
<path d="M12.0243 0.150301C13.6845 0.150301 15.0303 1.49614 15.0303 3.15631V61.4729H48.6983C50.3586 61.4729 51.7044 62.8187 51.7044 64.479V71.994C51.7044 73.6542 50.3586 75 48.6983 75H3.00607C2.95419 75 2.9026 74.9988 2.85136 74.9961C1.31429 74.9182 0.0817356 73.6858 0.0038163 72.1488C0.0012188 72.0974 3.78284e-10 72.046 0 71.994V3.15631C5.42289e-07 1.49614 1.34586 0.150301 3.00607 0.150301H12.0243ZM164.432 0.150301C164.656 0.150301 164.874 0.175278 165.083 0.221633C166.044 0.407723 166.911 0.950435 167.498 1.75605L186.86 28.3129C187.699 29.4633 189.414 29.4661 190.257 28.3185L209.765 1.74548C210.501 0.742623 211.671 0.150319 212.915 0.150301H222.149C223.809 0.150301 225.155 1.49614 225.155 3.15631V4.38045C225.155 4.70411 225.05 5.01923 224.857 5.27871L213.434 20.602C213.398 20.6503 213.36 20.6952 213.321 20.7374L191.731 50.7797C190.169 52.9518 186.936 52.9488 185.38 50.7733L167.438 25.7037V71.0922C167.438 72.7524 166.092 74.0982 164.432 74.0982H156.015C154.355 74.0982 153.009 72.7524 153.009 71.0922V5.20121C152.769 4.4275 152.79 3.62549 153.021 2.89446C153.154 1.35693 154.443 0.150301 156.015 0.150301H164.432ZM222.446 23.6007C223.311 22.4409 225.155 23.0524 225.155 24.499V71.0922C225.155 72.7524 223.809 74.0982 222.149 74.0982H213.732C212.071 74.0982 210.725 72.7524 210.725 71.0922V39.8221C210.725 39.4984 210.83 39.1834 211.023 38.9236L222.446 23.6007ZM286.778 0C293.955 1.50301e-06 299.527 3.47405 303.111 8.34373C306.565 13.0386 308.17 18.9506 308.251 24.5498C308.336 30.1437 306.908 36.1356 303.433 40.9199C299.799 45.9225 294.104 49.2986 286.778 49.2986H264.234V71.0922C264.234 72.7524 262.888 74.0982 261.227 74.0982H252.81C251.15 74.0982 249.804 72.7524 249.804 71.0922V37.1242C249.804 36.2943 250.477 35.6212 251.307 35.6212H264.308C264.344 35.6212 264.375 35.6468 264.381 35.6811L264.384 35.7117C264.391 35.746 264.422 35.7715 264.458 35.7715H286.778C289.523 35.7715 291.249 34.6762 292.487 32.9717C293.883 31.0488 294.775 28.0978 294.727 24.7488C294.677 21.4052 293.697 18.3742 292.216 16.3619C290.864 14.5245 289.145 13.5271 286.778 13.5271H264.609C264.573 13.5271 264.543 13.5014 264.536 13.4672L264.533 13.4366C264.526 13.4025 264.495 13.3768 264.459 13.3768H251.307C250.477 13.3768 249.804 12.7038 249.804 11.8737V3.15631C249.804 1.49614 251.15 0.150301 252.81 0.150301H257.549C258.058 0.0520864 258.584 0 259.122 0H286.778ZM342.993 0.150301C344.652 0.150301 345.999 1.49614 345.999 3.15631V71.0922C345.999 72.7524 344.652 74.0982 342.993 74.0982H334.576C332.916 74.0982 331.569 72.7524 331.569 71.0922V3.15631C331.569 1.49614 332.916 0.150301 334.576 0.150301H342.993ZM386.617 0.150301C387.089 0.150301 387.53 0.369962 387.816 0.744165L406.312 25.102L424.809 0.744457C425.094 0.370184 425.536 0.150304 426.005 0.150301H440.35C441.592 0.150391 442.298 1.5725 441.547 2.56216L414.973 37.5565C414.922 37.7173 414.844 37.8718 414.738 38.0119L407.566 47.4562C407.458 47.599 407.328 47.7156 407.19 47.807L387.678 73.5039C387.392 73.8785 386.95 74.0982 386.481 74.0982H372.136C370.895 74.0982 370.188 72.6761 370.94 71.6865L397.255 37.0314L371.078 2.56245C370.327 1.57281 371.03 0.150397 372.275 0.150301H386.617ZM420.27 46.632C420.871 45.8399 422.064 45.8399 422.665 46.632L441.691 71.6862C442.442 72.6758 441.739 74.0982 440.494 74.0982H426.152C425.681 74.0982 425.239 73.8785 424.953 73.5042L413.1 57.8943C412.691 57.3568 412.691 56.6134 413.1 56.0763L420.27 46.632ZM126.556 61.4729C128.216 61.4729 129.562 62.8187 129.562 64.479V70.7916C129.562 72.4518 128.216 73.7976 126.556 73.7976H78.759C77.0988 73.7976 75.753 72.4518 75.753 70.7916V64.479C75.753 62.8187 77.0988 61.4729 78.759 61.4729H126.556ZM121.746 30.511C123.406 30.511 124.752 31.8568 124.752 33.517V39.8297C124.752 41.4899 123.406 42.8357 121.746 42.8357H78.759C77.0988 42.8357 75.753 41.4899 75.753 39.8297V33.517C75.753 31.8568 77.0988 30.511 78.759 30.511H121.746ZM126.556 0.150301C128.216 0.150301 129.562 1.49614 129.562 3.15631V9.46894C129.562 11.1291 128.216 12.475 126.556 12.475H78.759C77.0988 12.475 75.753 11.1291 75.753 9.46894V3.15631C75.753 1.49614 77.0988 0.150301 78.759 0.150301H126.556Z" fill="white"/>
</svg>
