<svg width="204" height="92" viewBox="0 0 204 92" fill="none" xmlns="http://www.w3.org/2000/svg">
<path d="M94.3743 42C94.1543 42 93.9843 41.94 93.8643 41.82C93.7443 41.68 93.6843 41.51 93.6843 41.31V21.69C93.6843 21.49 93.7443 21.33 93.8643 21.21C93.9843 21.07 94.1543 21 94.3743 21H95.9643C96.1643 21 96.3243 21.07 96.4443 21.21C96.5643 21.33 96.6243 21.49 96.6243 21.69V39.39H106.614C106.834 39.39 107.004 39.46 107.124 39.6C107.244 39.72 107.304 39.89 107.304 40.11V41.31C107.304 41.51 107.244 41.68 107.124 41.82C107.004 41.94 106.834 42 106.614 42H94.3743ZM112.779 42C112.559 42 112.389 41.94 112.269 41.82C112.149 41.68 112.089 41.51 112.089 41.31V21.72C112.089 21.5 112.149 21.33 112.269 21.21C112.389 21.07 112.559 21 112.779 21H125.169C125.389 21 125.559 21.07 125.679 21.21C125.799 21.33 125.859 21.5 125.859 21.72V22.86C125.859 23.08 125.799 23.25 125.679 23.37C125.559 23.49 125.389 23.55 125.169 23.55H114.969V30.12H124.509C124.729 30.12 124.899 30.19 125.019 30.33C125.139 30.45 125.199 30.62 125.199 30.84V31.95C125.199 32.15 125.139 32.32 125.019 32.46C124.899 32.58 124.729 32.64 124.509 32.64H114.969V39.45H125.409C125.629 39.45 125.799 39.51 125.919 39.63C126.039 39.75 126.099 39.92 126.099 40.14V41.31C126.099 41.51 126.039 41.68 125.919 41.82C125.799 41.94 125.629 42 125.409 42H112.779ZM132.472 42C132.272 42 132.102 41.94 131.962 41.82C131.842 41.68 131.782 41.51 131.782 41.31V21.72C131.782 21.5 131.842 21.33 131.962 21.21C132.102 21.07 132.272 21 132.472 21H133.972C134.212 21 134.392 21.06 134.512 21.18C134.632 21.3 134.702 21.4 134.722 21.48L141.082 33.6L147.472 21.48C147.512 21.4 147.582 21.3 147.682 21.18C147.802 21.06 147.982 21 148.222 21H149.692C149.912 21 150.082 21.07 150.202 21.21C150.342 21.33 150.412 21.5 150.412 21.72V41.31C150.412 41.51 150.342 41.68 150.202 41.82C150.082 41.94 149.912 42 149.692 42H148.222C148.022 42 147.852 41.94 147.712 41.82C147.592 41.68 147.532 41.51 147.532 41.31V26.55L142.522 36.33C142.442 36.53 142.322 36.69 142.162 36.81C142.002 36.91 141.802 36.96 141.562 36.96H140.632C140.372 36.96 140.162 36.91 140.002 36.81C139.862 36.69 139.742 36.53 139.642 36.33L134.632 26.55V41.31C134.632 41.51 134.562 41.68 134.422 41.82C134.302 41.94 134.142 42 133.942 42H132.472ZM157.79 42C157.57 42 157.4 41.94 157.28 41.82C157.16 41.68 157.1 41.51 157.1 41.31V21.72C157.1 21.5 157.16 21.33 157.28 21.21C157.4 21.07 157.57 21 157.79 21H165.41C166.89 21 168.17 21.24 169.25 21.72C170.35 22.2 171.2 22.92 171.8 23.88C172.4 24.82 172.7 26 172.7 27.42C172.7 28.84 172.4 30.02 171.8 30.96C171.2 31.9 170.35 32.61 169.25 33.09C168.17 33.57 166.89 33.81 165.41 33.81H160.1V41.31C160.1 41.51 160.03 41.68 159.89 41.82C159.77 41.94 159.6 42 159.38 42H157.79ZM160.07 31.29H165.26C166.74 31.29 167.85 30.96 168.59 30.3C169.33 29.64 169.7 28.68 169.7 27.42C169.7 26.18 169.34 25.22 168.62 24.54C167.9 23.86 166.78 23.52 165.26 23.52H160.07V31.29ZM178.538 42C178.318 42 178.148 41.94 178.028 41.82C177.908 41.68 177.848 41.51 177.848 41.31V21.69C177.848 21.49 177.908 21.33 178.028 21.21C178.148 21.07 178.318 21 178.538 21H180.128C180.328 21 180.488 21.07 180.608 21.21C180.748 21.33 180.818 21.49 180.818 21.69V41.31C180.818 41.51 180.748 41.68 180.608 41.82C180.488 41.94 180.328 42 180.128 42H178.538ZM186.291 42C186.131 42 185.981 41.94 185.841 41.82C185.721 41.7 185.661 41.56 185.661 41.4C185.661 41.32 185.671 41.25 185.691 41.19C185.731 41.11 185.761 41.05 185.781 41.01L192.651 31.32L186.111 21.99C186.051 21.87 186.021 21.74 186.021 21.6C186.021 21.44 186.081 21.3 186.201 21.18C186.321 21.06 186.461 21 186.621 21H188.421C188.621 21 188.781 21.05 188.901 21.15C189.021 21.23 189.131 21.35 189.231 21.51L194.511 29.01L199.761 21.51C199.841 21.35 199.941 21.23 200.061 21.15C200.201 21.05 200.361 21 200.541 21H202.251C202.411 21 202.551 21.06 202.671 21.18C202.791 21.3 202.851 21.44 202.851 21.6C202.851 21.74 202.811 21.87 202.731 21.99L196.281 31.35L203.121 41.01C203.161 41.05 203.191 41.11 203.211 41.19C203.231 41.25 203.241 41.32 203.241 41.4C203.241 41.56 203.181 41.7 203.061 41.82C202.941 41.94 202.791 42 202.611 42H200.781C200.601 42 200.441 41.95 200.301 41.85C200.181 41.75 200.071 41.64 199.971 41.52L194.391 33.72L188.841 41.52C188.741 41.64 188.631 41.75 188.511 41.85C188.391 41.95 188.231 42 188.031 42H186.291Z" fill="#F8FAFC"/>
<path d="M98.9747 68.204C98.102 68.204 97.2803 68.0595 96.5097 67.7705C95.7447 67.4815 95.0675 67.0622 94.4782 66.5125C93.8945 65.9628 93.4355 65.2942 93.1012 64.5065C92.7668 63.7188 92.5997 62.8263 92.5997 61.829C92.5997 60.8713 92.7668 60.0015 93.1012 59.2195C93.4355 58.4318 93.8945 57.7547 94.4782 57.188C95.0675 56.6213 95.7447 56.185 96.5097 55.879C97.2803 55.573 98.102 55.42 98.9747 55.42C99.462 55.42 99.9947 55.4738 100.573 55.5815C101.156 55.6892 101.746 55.8847 102.341 56.168L101.899 57.273C101.298 57.0067 100.757 56.8395 100.275 56.7715C99.7992 56.6978 99.3657 56.661 98.9747 56.661C98.391 56.661 97.8215 56.7687 97.2662 56.984C96.7108 57.1937 96.2122 57.5138 95.7702 57.9445C95.3338 58.3695 94.9853 58.905 94.7247 59.551C94.464 60.197 94.3337 60.9563 94.3337 61.829C94.3337 62.696 94.464 63.4525 94.7247 64.0985C94.9853 64.7445 95.3338 65.28 95.7702 65.705C96.2122 66.13 96.7108 66.4502 97.2662 66.6655C97.8215 66.8752 98.391 66.98 98.9747 66.98C99.224 66.98 99.5102 66.963 99.8332 66.929C100.156 66.8893 100.505 66.81 100.879 66.691V62.271H102.443V67.371C102.035 67.5863 101.624 67.7563 101.21 67.881C100.802 68 100.408 68.0822 100.029 68.1275C99.649 68.1785 99.2977 68.204 98.9747 68.204ZM118.075 68V55.794C118.5 55.709 118.899 55.6382 119.273 55.5815C119.647 55.5248 120.018 55.4823 120.387 55.454C120.755 55.42 121.146 55.403 121.56 55.403C122.472 55.403 123.263 55.5702 123.931 55.9045C124.606 56.2332 125.127 56.6752 125.495 57.2305C125.864 57.7858 126.048 58.395 126.048 59.058C126.048 59.7437 125.858 60.3443 125.478 60.86C125.099 61.3757 124.614 61.7837 124.025 62.084L123.617 62.22L123.957 62.356C124.376 62.6337 124.699 62.9765 124.926 63.3845C125.152 63.7925 125.337 64.2458 125.478 64.7445C125.62 65.2375 125.764 65.7617 125.912 66.317C126.059 66.8667 126.263 67.4277 126.524 68H124.824C124.597 67.5127 124.416 66.9942 124.28 66.4445C124.144 65.8892 124.002 65.3537 123.855 64.838C123.707 64.3223 123.509 63.869 123.26 63.478C123.016 63.0813 122.67 62.798 122.223 62.628C121.9 62.662 121.588 62.6705 121.288 62.6535C120.993 62.6308 120.687 62.5827 120.37 62.509C120.455 62.3163 120.568 62.1435 120.71 61.9905C120.857 61.8318 121.027 61.7072 121.22 61.6165C121.412 61.5258 121.628 61.4777 121.866 61.472C122.257 61.4607 122.639 61.3502 123.013 61.1405C123.393 60.9308 123.707 60.6447 123.957 60.282C124.206 59.9193 124.331 59.5057 124.331 59.041C124.331 58.5933 124.206 58.1882 123.957 57.8255C123.707 57.4628 123.373 57.1767 122.954 56.967C122.534 56.7517 122.07 56.644 121.56 56.644C121.248 56.644 120.959 56.6497 120.693 56.661C120.432 56.6723 120.098 56.7177 119.69 56.797V68H118.075ZM147.679 68.238C146.619 68.238 145.656 67.983 144.789 67.473C143.922 66.9573 143.231 66.2207 142.715 65.263C142.205 64.2997 141.95 63.1493 141.95 61.812C141.95 60.7297 142.12 59.7862 142.46 58.9815C142.806 58.1768 143.259 57.5082 143.82 56.9755C144.381 56.4428 144.999 56.0462 145.673 55.7855C146.347 55.5192 147.016 55.386 147.679 55.386C148.603 55.386 149.419 55.556 150.127 55.896C150.841 56.2303 151.442 56.695 151.929 57.29C152.416 57.8793 152.785 58.5622 153.034 59.3385C153.283 60.1092 153.408 60.9337 153.408 61.812C153.408 62.7923 153.255 63.6792 152.949 64.4725C152.649 65.2602 152.232 65.9345 151.7 66.4955C151.167 67.0565 150.555 67.4872 149.864 67.7875C149.178 68.0878 148.45 68.238 147.679 68.238ZM147.679 67.014C148.478 67.014 149.178 66.7845 149.779 66.3255C150.379 65.8608 150.844 65.2347 151.173 64.447C151.507 63.6593 151.674 62.781 151.674 61.812C151.674 60.7467 151.493 59.8258 151.13 59.0495C150.773 58.2732 150.291 57.6753 149.685 57.256C149.079 56.8367 148.41 56.627 147.679 56.627C146.948 56.627 146.279 56.8367 145.673 57.256C145.067 57.6753 144.582 58.2732 144.22 59.0495C143.863 59.8258 143.684 60.7467 143.684 61.812C143.684 62.5827 143.783 63.2853 143.982 63.92C144.18 64.5547 144.458 65.1043 144.815 65.569C145.177 66.028 145.602 66.385 146.09 66.64C146.577 66.8893 147.107 67.014 147.679 67.014ZM174.131 68.238C173.168 68.238 172.344 68.0397 171.658 67.643C170.978 67.2407 170.457 66.6797 170.094 65.96C169.737 65.2403 169.558 64.4017 169.558 63.444V55.641H171.156V63.716C171.156 64.719 171.426 65.5208 171.964 66.1215C172.508 66.7165 173.23 67.014 174.131 67.014C175.032 67.014 175.752 66.7165 176.29 66.1215C176.834 65.5208 177.106 64.719 177.106 63.716V55.641H178.704V63.444C178.704 64.4017 178.512 65.2403 178.126 65.96C177.741 66.6797 177.203 67.2407 176.511 67.643C175.826 68.0397 175.032 68.238 174.131 68.238ZM195.149 68V55.76C195.574 55.675 195.974 55.607 196.348 55.556C196.722 55.505 197.093 55.471 197.461 55.454C197.829 55.4313 198.22 55.42 198.634 55.42C199.546 55.42 200.337 55.59 201.006 55.93C201.68 56.2643 202.201 56.7148 202.57 57.2815C202.938 57.8482 203.122 58.4743 203.122 59.16C203.122 59.8853 202.932 60.5115 202.553 61.0385C202.173 61.5598 201.68 61.9735 201.074 62.2795C200.467 62.5798 199.824 62.7583 199.144 62.815C198.9 62.8377 198.634 62.8433 198.345 62.832C198.062 62.815 197.761 62.764 197.444 62.679C197.529 62.4863 197.642 62.3135 197.784 62.1605C197.931 62.0018 198.101 61.8772 198.294 61.7865C198.487 61.6902 198.702 61.642 198.94 61.642C199.331 61.642 199.714 61.5372 200.088 61.3275C200.467 61.1122 200.782 60.8175 201.031 60.4435C201.28 60.0695 201.405 59.6417 201.405 59.16C201.405 58.684 201.28 58.259 201.031 57.885C200.782 57.5053 200.447 57.2078 200.028 56.9925C199.609 56.7715 199.144 56.661 198.634 56.661C198.322 56.661 198.008 56.6695 197.691 56.6865C197.379 56.7035 197.07 56.729 196.764 56.763V68H195.149Z" fill="#F8FAFC"/>
<path d="M54.9948 17.1811C58.1951 18.5069 60.3763 22.4923 60.8143 28.6555C61.2451 34.7188 59.9234 42.4148 56.6729 50.2623C53.4222 58.11 48.9148 64.4871 44.3226 68.4699C39.6548 72.5182 35.2944 73.794 32.094 72.4686C28.8936 71.1429 26.7126 67.1574 26.2745 60.9941C25.8436 54.9307 27.1647 47.2338 30.4154 39.3861C33.666 31.5385 38.174 25.1625 42.7662 21.1798C47.4341 17.1313 51.7944 15.8554 54.9948 17.1811Z" stroke="url(#paint0_linear_89_3)" stroke-width="3"/>
<path d="M56.4462 17.7822C59.6465 19.1079 61.8268 23.0931 62.2648 29.2563C62.6957 35.3196 61.3749 43.0157 58.1243 50.8634C54.8736 58.7111 50.3653 65.0878 45.7731 69.0706C41.1055 73.1187 36.7457 74.3951 33.5454 73.0697C30.345 71.744 28.164 67.7585 27.7259 61.5952C27.295 55.5318 28.6161 47.8349 31.8668 39.9872C35.1174 32.1396 39.6255 25.7636 44.2176 21.7809C48.8855 17.7324 53.2458 16.4565 56.4462 17.7822Z" stroke="url(#paint1_linear_89_3)" stroke-width="3"/>
<path d="M57.8978 18.3834C61.0981 19.7092 63.2784 23.6943 63.7164 29.8575C64.1473 35.9208 62.8265 43.617 59.5759 51.4646C56.3252 59.3124 51.8169 65.6891 47.2247 69.6718C42.5571 73.72 38.1973 74.9963 34.997 73.6709C31.7966 72.3453 29.6156 68.3597 29.1775 62.1964C28.7466 56.1331 30.0677 48.4362 33.3184 40.5884C36.569 32.7408 41.0771 26.3648 45.6692 22.3821C50.3371 18.3336 54.6974 17.0578 57.8978 18.3834Z" stroke="url(#paint2_linear_89_3)" stroke-width="3"/>
<path d="M59.3659 18.9915C62.5662 20.3173 64.7474 24.3028 65.1854 30.466C65.6162 36.5293 64.2945 44.2252 61.044 52.0727C57.7933 59.9205 53.2859 66.2976 48.6937 70.2803C44.0259 74.3287 39.6654 75.6045 36.465 74.279C33.2647 72.9534 31.0837 68.9678 30.6456 62.8046C30.2147 56.7412 31.5358 49.0443 34.7865 41.1965C38.0371 33.3489 42.5451 26.9729 47.1372 22.9902C51.8052 18.9417 56.1655 17.6659 59.3659 18.9915Z" stroke="url(#paint3_linear_89_3)" stroke-width="3"/>
<path d="M32.0943 18.9913C35.2947 17.6659 39.6552 18.9417 44.3229 22.9901C48.915 26.9728 53.4222 33.3493 56.6728 41.1968C59.9234 49.0445 61.2455 56.741 60.8145 62.8044C60.3765 68.9677 58.1953 72.9531 54.9951 74.2789C51.7947 75.6045 47.4343 74.3285 42.7664 70.2802C38.1742 66.2974 33.6659 59.9207 30.4153 52.073C27.1647 44.2253 25.8439 36.5291 26.2748 30.4658C26.7128 24.3024 28.8939 20.317 32.0943 18.9913Z" stroke="url(#paint4_linear_89_3)" stroke-width="3"/>
<path d="M33.5456 18.39C36.746 17.0646 41.1064 18.3404 45.7742 22.3887C50.3663 26.3715 54.8735 32.7479 58.1241 40.5954C61.3747 48.4432 62.6967 56.1397 62.2658 62.2031C61.8278 68.3663 59.6466 72.3518 56.4464 73.6776C53.246 75.0032 48.8855 73.7272 44.2177 69.6789C39.6255 65.6961 35.1172 59.3194 31.8666 51.4716C28.616 43.624 27.2952 35.9278 27.7261 29.8645C28.1641 23.7011 30.3452 19.7157 33.5456 18.39Z" stroke="url(#paint5_linear_89_3)" stroke-width="3"/>
<path d="M34.9971 17.7888C38.1975 16.4634 42.558 17.7392 47.2258 21.7875C51.8178 25.7703 56.325 32.1468 59.5756 39.9942C62.8262 47.842 64.1483 55.5385 63.7174 61.6019C63.2794 67.7651 61.0981 71.7506 57.8979 73.0764C54.6975 74.402 50.3371 73.126 45.6692 69.0777C41.0771 65.0949 36.5688 58.7182 33.3181 50.8704C30.0676 43.0228 28.7467 35.3266 29.1776 29.2633C29.6157 23.0999 31.7967 19.1145 34.9971 17.7888Z" stroke="url(#paint6_linear_89_3)" stroke-width="3"/>
<path d="M36.4652 17.1807C39.6656 15.8552 44.0261 17.131 48.6939 21.1794C53.2859 25.1621 57.7931 31.5386 61.0437 39.3861C64.2943 47.2338 65.6164 54.9303 65.1854 60.9937C64.7474 67.157 62.5662 71.1424 59.366 72.4682C56.1656 73.7938 51.8052 72.5178 47.1373 68.4695C42.5452 64.4867 38.0368 58.11 34.7862 50.2623C31.5357 42.4146 30.2148 34.7185 30.6457 28.6551C31.0838 22.4917 33.2648 18.5063 36.4652 17.1807Z" stroke="url(#paint7_linear_89_3)" stroke-width="3"/>
<path d="M17.1811 36.4646C18.5069 33.2643 22.492 31.0841 28.6552 30.646C34.7185 30.2151 42.4146 31.536 50.2623 34.7866C58.1101 38.0372 64.4868 42.5456 68.4695 47.1377C72.5176 51.8054 73.794 56.1652 72.4686 59.3655C71.1429 62.5659 67.1574 64.7469 60.9941 65.185C54.9307 65.6159 47.2338 64.2947 39.3861 61.0441C31.5385 57.7934 25.1625 53.2854 21.1798 48.6933C17.1313 44.0253 15.8554 39.665 17.1811 36.4646Z" stroke="url(#paint8_linear_89_3)" stroke-width="3"/>
<path d="M17.7821 35.0131C19.1079 31.8129 23.093 29.6326 29.2562 29.1946C35.3195 28.7637 43.0157 30.0845 50.8633 33.3351C58.7111 36.5858 65.0878 41.0941 69.0705 45.6863C73.1187 50.3539 74.395 54.7137 73.0696 57.914C71.744 61.1144 67.7584 63.2954 61.5951 63.7335C55.5317 64.1644 47.8349 62.8432 39.9871 59.5926C32.1395 56.342 25.7635 51.8339 21.7808 47.2418C17.7323 42.5739 16.4564 38.2136 17.7821 35.0131Z" stroke="url(#paint9_linear_89_3)" stroke-width="3"/>
<path d="M18.3835 33.5617C19.7093 30.3614 23.6945 28.1811 29.8576 27.7431C35.921 27.3122 43.6171 28.6331 51.4648 31.8836C59.3125 35.1343 65.6892 39.6426 69.672 44.2348C73.7201 48.9025 74.9964 53.2622 73.671 56.4626C72.3454 59.6629 68.3598 61.8439 62.1966 62.282C56.1332 62.7129 48.4363 61.3918 40.5885 58.1411C32.7409 54.8905 26.365 50.3824 22.3822 45.7903C18.3338 41.1224 17.0579 36.7621 18.3835 33.5617Z" stroke="url(#paint10_linear_89_3)" stroke-width="3"/>
<path d="M18.9915 32.0934C20.3173 28.8932 24.3024 26.7129 30.4656 26.2749C36.5289 25.844 44.2251 27.1648 52.0727 30.4154C59.9205 33.6661 66.2972 38.1744 70.2799 42.7666C74.3281 47.4342 75.6044 51.794 74.279 54.9943C72.9534 58.1947 68.9678 60.3757 62.8045 60.8138C56.7411 61.2447 49.0443 59.9236 41.1965 56.6729C33.3489 53.4223 26.9729 48.9142 22.9902 44.3221C18.9417 39.6542 17.6659 35.2939 18.9915 32.0934Z" stroke="url(#paint11_linear_89_3)" stroke-width="3"/>
<path d="M18.9913 59.3652C17.6659 56.1648 18.9421 51.8052 22.9904 47.1375C26.9731 42.5453 33.3491 38.0373 41.1967 34.7867C49.0445 31.5361 56.7413 30.2149 62.8047 30.6459C68.9677 31.0839 72.9531 33.2643 74.2788 36.4644C75.6045 39.6648 74.3285 44.0252 70.2801 48.6931C66.2974 53.2853 59.9207 57.7936 52.0729 61.0442C44.2253 64.2948 36.5291 65.6156 30.4658 65.1847C24.3023 64.7467 20.317 62.5656 18.9913 59.3652Z" stroke="url(#paint12_linear_89_3)" stroke-width="3"/>
<path d="M18.3901 57.9138C17.0647 54.7134 18.3409 50.3538 22.3892 45.6861C26.3719 41.094 32.7479 36.586 40.5955 33.3353C48.4433 30.0847 56.1401 28.7636 62.2035 29.1945C68.3665 29.6326 72.3519 31.8129 73.6776 35.0131C75.0033 38.2134 73.7273 42.5739 69.6789 47.2417C65.6962 51.8339 59.3195 56.3422 51.4717 59.5928C43.6241 62.8434 35.9279 64.1642 29.8646 63.7333C23.7011 63.2953 19.7158 61.1143 18.3901 57.9138Z" stroke="url(#paint13_linear_89_3)" stroke-width="3"/>
<path d="M17.7887 56.4623C16.4633 53.2619 17.7395 48.9023 21.7878 44.2346C25.7705 39.6425 32.1465 35.1345 39.9941 31.8838C47.8419 28.6332 55.5388 27.3121 61.6022 27.743C67.7652 28.1811 71.7505 30.3614 73.0763 33.5615C74.4019 36.7619 73.1259 41.1223 69.0776 45.7902C65.0948 50.3824 58.7181 54.8907 50.8703 58.1413C43.0227 61.3919 35.3265 62.7127 29.2632 62.2818C23.0998 61.8438 19.1144 59.6627 17.7887 56.4623Z" stroke="url(#paint14_linear_89_3)" stroke-width="3"/>
<path d="M17.1807 54.9941C15.8553 51.7938 17.1315 47.4342 21.1798 42.7664C25.1625 38.1743 31.5385 33.6663 39.3861 30.4157C47.2339 27.165 54.9307 25.8439 60.9941 26.2748C67.1571 26.7129 71.1425 28.8932 72.4682 32.0934C73.7939 35.2938 72.5179 39.6542 68.4695 44.322C64.4868 48.9142 58.1101 53.4225 50.2623 56.6731C42.4147 59.9237 34.7185 61.2445 28.6552 60.8136C22.4917 60.3756 18.5064 58.1946 17.1807 54.9941Z" stroke="url(#paint15_linear_89_3)" stroke-width="3"/>
<defs>
<linearGradient id="paint0_linear_89_3" x1="55.5685" y1="15.7951" x2="31.5198" y2="73.8539" gradientUnits="userSpaceOnUse">
<stop stop-color="white"/>
<stop offset="1" stop-color="#14C3FE"/>
</linearGradient>
<linearGradient id="paint1_linear_89_3" x1="57.02" y1="16.3962" x2="32.9713" y2="74.455" gradientUnits="userSpaceOnUse">
<stop stop-color="white"/>
<stop offset="1" stop-color="#14C3FE"/>
</linearGradient>
<linearGradient id="paint2_linear_89_3" x1="58.4716" y1="16.9975" x2="34.4229" y2="75.0563" gradientUnits="userSpaceOnUse">
<stop stop-color="white"/>
<stop offset="1" stop-color="#14C3FE"/>
</linearGradient>
<linearGradient id="paint3_linear_89_3" x1="59.9396" y1="17.6056" x2="35.8909" y2="75.6644" gradientUnits="userSpaceOnUse">
<stop stop-color="white"/>
<stop offset="1" stop-color="#14C3FE"/>
</linearGradient>
<linearGradient id="paint4_linear_89_3" x1="31.5199" y1="17.6057" x2="55.5687" y2="75.6645" gradientUnits="userSpaceOnUse">
<stop stop-color="white"/>
<stop offset="1" stop-color="#14C3FE"/>
</linearGradient>
<linearGradient id="paint5_linear_89_3" x1="32.9712" y1="17.0043" x2="57.02" y2="75.0631" gradientUnits="userSpaceOnUse">
<stop stop-color="white"/>
<stop offset="1" stop-color="#14C3FE"/>
</linearGradient>
<linearGradient id="paint6_linear_89_3" x1="34.4228" y1="16.4031" x2="58.4715" y2="74.4619" gradientUnits="userSpaceOnUse">
<stop stop-color="white"/>
<stop offset="1" stop-color="#14C3FE"/>
</linearGradient>
<linearGradient id="paint7_linear_89_3" x1="35.8909" y1="15.795" x2="59.9396" y2="73.8538" gradientUnits="userSpaceOnUse">
<stop stop-color="white"/>
<stop offset="1" stop-color="#14C3FE"/>
</linearGradient>
<linearGradient id="paint8_linear_89_3" x1="15.7951" y1="35.8909" x2="73.8539" y2="59.9396" gradientUnits="userSpaceOnUse">
<stop stop-color="white"/>
<stop offset="1" stop-color="#14C3FE"/>
</linearGradient>
<linearGradient id="paint9_linear_89_3" x1="16.3962" y1="34.4394" x2="74.455" y2="58.4882" gradientUnits="userSpaceOnUse">
<stop stop-color="white"/>
<stop offset="1" stop-color="#14C3FE"/>
</linearGradient>
<linearGradient id="paint10_linear_89_3" x1="16.9976" y1="32.9879" x2="75.0564" y2="57.0367" gradientUnits="userSpaceOnUse">
<stop stop-color="white"/>
<stop offset="1" stop-color="#14C3FE"/>
</linearGradient>
<linearGradient id="paint11_linear_89_3" x1="17.6056" y1="31.5197" x2="75.6644" y2="55.5685" gradientUnits="userSpaceOnUse">
<stop stop-color="white"/>
<stop offset="1" stop-color="#14C3FE"/>
</linearGradient>
<linearGradient id="paint12_linear_89_3" x1="17.6056" y1="59.9395" x2="75.6644" y2="35.8908" gradientUnits="userSpaceOnUse">
<stop stop-color="white"/>
<stop offset="1" stop-color="#14C3FE"/>
</linearGradient>
<linearGradient id="paint13_linear_89_3" x1="17.0044" y1="58.4882" x2="75.0632" y2="34.4394" gradientUnits="userSpaceOnUse">
<stop stop-color="white"/>
<stop offset="1" stop-color="#14C3FE"/>
</linearGradient>
<linearGradient id="paint14_linear_89_3" x1="16.403" y1="57.0367" x2="74.4618" y2="32.9879" gradientUnits="userSpaceOnUse">
<stop stop-color="white"/>
<stop offset="1" stop-color="#14C3FE"/>
</linearGradient>
<linearGradient id="paint15_linear_89_3" x1="15.795" y1="55.5685" x2="73.8538" y2="31.5197" gradientUnits="userSpaceOnUse">
<stop stop-color="white"/>
<stop offset="1" stop-color="#14C3FE"/>
</linearGradient>
</defs>
</svg>
