<svg width="139" height="42" viewBox="0 0 139 42" fill="none" xmlns="http://www.w3.org/2000/svg">
<path d="M50.6521 28.5806V11.8596H53.5386V26.4646H59.9441L59.9326 28.5806H50.6521ZM63.9315 28.5806V11.8596H73.764V13.9526H66.795V26.4876H74.1205V28.5806H63.9315ZM67.669 20.8296C67.7687 20.5152 67.9067 20.2009 68.083 19.8866C68.267 19.5646 68.5008 19.3001 68.7845 19.0931C69.0758 18.8861 69.4285 18.7826 69.8425 18.7826H72.982V20.8296H67.669ZM78.1802 28.5806L79.8937 11.8596H83.5392L87.5182 24.9696L87.6792 25.7516L87.8517 24.9696L91.8077 11.8596H95.4762L97.1437 28.5806H94.4872L93.4292 15.6776L93.3602 14.6196L93.0842 15.6776L89.0937 28.3506H86.2302L82.2052 15.6546L81.9177 14.6196L81.8487 15.6546L80.8252 28.5806H78.1802ZM101.922 28.5806V12.0436C102.65 11.9209 103.287 11.8212 103.831 11.7446C104.383 11.6679 104.9 11.6181 105.383 11.5951C105.874 11.5644 106.399 11.5491 106.959 11.5491C108.193 11.5491 109.29 11.7676 110.248 12.2046C111.214 12.6339 111.969 13.2396 112.513 14.0216C113.065 14.7959 113.341 15.6967 113.341 16.7241C113.341 17.7284 113.085 18.5947 112.571 19.3231C112.057 20.0514 111.394 20.6264 110.581 21.0481C109.769 21.4621 108.902 21.7112 107.982 21.7956C107.645 21.8262 107.281 21.8301 106.89 21.8071C106.507 21.7841 106.1 21.7112 105.671 21.5886C105.786 21.3126 105.935 21.0404 106.119 20.7721C106.303 20.4961 106.522 20.2661 106.775 20.0821C107.036 19.8904 107.335 19.7869 107.672 19.7716C108.132 19.7486 108.565 19.5991 108.971 19.3231C109.385 19.0471 109.719 18.6829 109.972 18.2306C110.233 17.7782 110.363 17.2761 110.363 16.7241C110.363 16.1491 110.213 15.6316 109.914 15.1716C109.623 14.7039 109.221 14.3359 108.707 14.0676C108.201 13.7916 107.618 13.6536 106.959 13.6536C106.537 13.6536 106.173 13.6651 105.866 13.6881C105.567 13.7111 105.211 13.7456 104.797 13.7916V28.5806H101.922ZM117.559 28.5806V11.8596H120.331V28.5806H117.559ZM134.441 28.5806L124.436 11.8596H127.656L130.704 17.5866L130.922 18.2421L131.106 17.5866L134.165 11.8596H137.328L132.371 20.0361L137.592 28.5806H134.441ZM124.172 28.5806L128.737 21.0596C128.929 21.3126 129.12 21.6461 129.312 22.0601C129.504 22.4664 129.626 22.8996 129.68 23.3596C129.734 23.8196 129.646 24.2566 129.416 24.6706L127.242 28.5806H124.172Z" fill="url(#paint0_linear_110_9)"/>
<path d="M25.1631 9.20199C26.1841 9.6251 27.1242 11.0266 27.3172 13.742C27.503 16.3575 26.9322 19.7417 25.4871 23.2308C24.0418 26.72 22.0521 29.5172 20.0712 31.2353C18.0146 33.0189 16.3589 33.3452 15.3377 32.9224C14.3165 32.4994 13.3766 31.0979 13.1835 28.3823C12.9977 25.7668 13.5678 22.3816 15.0131 18.8923C16.4584 15.4032 18.4487 12.6071 20.4296 10.8891C22.4863 9.10535 24.1419 8.779 25.1631 9.20199Z" stroke="url(#paint1_linear_110_9)" stroke-width="3"/>
<path d="M25.8253 9.4764C26.8464 9.89952 27.7865 11.301 27.9794 14.0164C28.1653 16.6319 27.5945 20.0161 26.1494 23.5052C24.704 26.9944 22.7144 29.7916 20.7334 31.5097C18.6769 33.2933 17.0212 33.6196 15.9999 33.1968C14.9788 32.7738 14.0389 31.3723 13.8458 28.6568C13.66 26.0412 14.2301 22.656 15.6754 19.1668C17.1207 15.6777 19.111 12.8815 21.0918 11.1635C23.1486 9.37976 24.8042 9.05341 25.8253 9.4764Z" stroke="url(#paint2_linear_110_9)" stroke-width="3"/>
<path d="M15.36 9.19023C16.3813 8.76739 18.037 9.09371 20.0935 10.8774C22.0744 12.5954 24.0638 15.3919 25.509 18.881C26.9543 22.3702 27.5253 25.755 27.3395 28.3706C27.1465 31.086 26.2064 32.4876 25.1853 32.9107C24.1642 33.3337 22.5085 33.0072 20.4519 31.2236C18.4709 29.5055 16.4804 26.7087 15.0351 23.2194C13.5899 19.7303 13.02 16.3458 13.2059 13.7303C13.3989 11.0147 14.3389 9.61323 15.36 9.19023Z" stroke="url(#paint3_linear_110_9)" stroke-width="3"/>
<path d="M16.0223 8.91582C17.0436 8.49298 18.6993 8.81929 20.7558 10.6029C22.7367 12.321 24.7261 15.1175 26.1713 18.6066C27.6166 22.0958 28.1876 25.4806 28.0017 28.0962C27.8088 30.8116 26.8687 32.2131 25.8476 32.6363C24.8265 33.0592 23.1708 32.7328 21.1142 30.9491C19.1332 29.2311 17.1427 26.4343 15.6974 22.945C14.2522 19.4559 13.6823 16.0714 13.8682 13.4559C14.0612 10.7402 15.0011 9.33881 16.0223 8.91582Z" stroke="url(#paint4_linear_110_9)" stroke-width="3"/>
<path d="M8.64173 16.3624C9.06485 15.3413 10.4664 14.4013 13.1818 14.2083C15.7973 14.0225 19.1815 14.5932 22.6705 16.0384C26.1598 17.4836 28.957 19.4733 30.6751 21.4542C32.4587 23.5108 32.785 25.1665 32.3622 26.1877C31.9392 27.2089 30.5376 28.1488 27.8221 28.3418C25.2065 28.5277 21.8214 27.9576 18.3321 26.5123C14.843 25.067 12.0468 23.0768 10.3288 21.0959C8.54507 19.0392 8.21874 17.3836 8.64173 16.3624Z" stroke="url(#paint5_linear_110_9)" stroke-width="3"/>
<path d="M8.9159 15.6998C9.33902 14.6787 10.7405 13.7387 13.456 13.5457C16.0714 13.3599 19.4557 13.9306 22.9447 15.3758C26.434 16.821 29.2312 18.8107 30.9492 20.7916C32.7329 22.8482 33.0592 24.5039 32.6363 25.5251C32.2134 26.5463 30.8118 27.4862 28.0963 27.6792C25.4807 27.8651 22.0955 27.295 18.6062 25.8497C15.1171 24.4044 12.321 22.4142 10.603 20.4333C8.81924 18.3766 8.49291 16.721 8.9159 15.6998Z" stroke="url(#paint6_linear_110_9)" stroke-width="3"/>
<path d="M8.63036 26.1655C8.20756 25.1444 8.53434 23.4894 10.3178 21.4329C12.0359 19.4521 14.832 17.4618 18.3211 16.0165C21.8104 14.5712 25.1955 14.0011 27.8111 14.187C30.5263 14.38 31.9277 15.3192 32.3508 16.3402C32.7738 17.3614 32.4474 19.017 30.6637 21.0737C28.9456 23.0547 26.1488 25.0452 22.6595 26.4905C19.1704 27.9357 15.7859 28.5055 13.1704 28.3196C10.4548 28.1266 9.05334 27.1867 8.63036 26.1655Z" stroke="url(#paint7_linear_110_9)" stroke-width="3"/>
<path d="M8.35595 25.5029C7.93315 24.4818 8.25993 22.8268 10.0434 20.7704C11.7614 18.7895 14.5576 16.7992 18.0467 15.3539C21.536 13.9086 24.9211 13.3385 27.5367 13.5244C30.2519 13.7174 31.6533 14.6566 32.0764 15.6776C32.4994 16.6988 32.173 18.3544 30.3893 20.4111C28.6712 22.3921 25.8744 24.3826 22.3851 25.8279C18.896 27.2731 15.5115 27.8429 12.896 27.657C10.1804 27.464 8.77893 26.5241 8.35595 25.5029Z" stroke="url(#paint8_linear_110_9)" stroke-width="3"/>
<defs>
<linearGradient id="paint0_linear_110_9" x1="48.7086" y1="4.58057" x2="112.946" y2="65.1554" gradientUnits="userSpaceOnUse">
<stop stop-color="#077FE1"/>
<stop offset="1" stop-color="#013D6E"/>
</linearGradient>
<linearGradient id="paint1_linear_110_9" x1="25.7368" y1="7.81606" x2="14.7636" y2="34.308" gradientUnits="userSpaceOnUse">
<stop stop-color="#008CFF"/>
<stop offset="1" stop-color="#004883"/>
</linearGradient>
<linearGradient id="paint2_linear_110_9" x1="26.3991" y1="8.09047" x2="15.4259" y2="34.5824" gradientUnits="userSpaceOnUse">
<stop stop-color="#008CFF"/>
<stop offset="1" stop-color="#004883"/>
</linearGradient>
<linearGradient id="paint3_linear_110_9" x1="14.7858" y1="7.80452" x2="25.7591" y2="34.2964" gradientUnits="userSpaceOnUse">
<stop stop-color="#008CFF"/>
<stop offset="1" stop-color="#004883"/>
</linearGradient>
<linearGradient id="paint4_linear_110_9" x1="15.4481" y1="7.5301" x2="26.4214" y2="34.0219" gradientUnits="userSpaceOnUse">
<stop stop-color="#008CFF"/>
<stop offset="1" stop-color="#004883"/>
</linearGradient>
<linearGradient id="paint5_linear_110_9" x1="7.2558" y1="15.7886" x2="33.7477" y2="26.762" gradientUnits="userSpaceOnUse">
<stop stop-color="#008CFF"/>
<stop offset="1" stop-color="#004883"/>
</linearGradient>
<linearGradient id="paint6_linear_110_9" x1="7.52997" y1="15.1261" x2="34.0219" y2="26.0994" gradientUnits="userSpaceOnUse">
<stop stop-color="#008CFF"/>
<stop offset="1" stop-color="#004883"/>
</linearGradient>
<linearGradient id="paint7_linear_110_9" x1="7.24466" y1="26.7398" x2="33.7366" y2="15.7665" gradientUnits="userSpaceOnUse">
<stop stop-color="#008CFF"/>
<stop offset="1" stop-color="#004883"/>
</linearGradient>
<linearGradient id="paint8_linear_110_9" x1="6.97024" y1="26.0772" x2="33.4622" y2="15.1039" gradientUnits="userSpaceOnUse">
<stop stop-color="#008CFF"/>
<stop offset="1" stop-color="#004883"/>
</linearGradient>
</defs>
</svg>
