<svg width="180" height="180" viewBox="0 0 180 180" fill="none" xmlns="http://www.w3.org/2000/svg">
<rect width="180" height="180" rx="30" fill="white"/>
<path d="M44 53.9247C44 47.3389 49.3389 42 55.9247 42C62.5105 42 67.8494 47.3389 67.8494 53.9247V132.397C67.8494 135.159 65.6108 137.397 62.8494 137.397H49C46.2386 137.397 44 135.159 44 132.397V53.9247Z" fill="url(#paint0_linear_145_2)"/>
<rect x="110.778" y="42" width="23.8494" height="95.3975" rx="5" fill="url(#paint1_linear_145_2)"/>
<path d="M44 51.5397V102.021C44 91.2708 45.4834 77.9248 64.9269 79.1761C66.2855 79.2635 67.5228 79.9746 68.3514 81.0548L110.072 135.441C111.018 136.674 112.485 137.397 114.039 137.397H129.018C133.135 137.397 135.488 132.7 133.023 129.403L74.2092 50.7448C71.4268 47.1674 66.2647 42 56.7197 42C47.1799 42 44 48.3598 44 51.5397Z" fill="#D9D9D9"/>
<path d="M44 51.5397V102.021C44 91.2708 45.4834 77.9248 64.9269 79.1761C66.2855 79.2635 67.5228 79.9746 68.3514 81.0548L110.072 135.441C111.018 136.674 112.485 137.397 114.039 137.397H129.018C133.135 137.397 135.488 132.7 133.023 129.403L74.2092 50.7448C71.4268 47.1674 66.2647 42 56.7197 42C47.1799 42 44 48.3598 44 51.5397Z" fill="url(#paint2_linear_145_2)"/>
<defs>
<linearGradient id="paint0_linear_145_2" x1="55.9247" y1="42" x2="55.9247" y2="137.397" gradientUnits="userSpaceOnUse">
<stop offset="0.701923" stop-color="#0084F1"/>
<stop offset="1" stop-color="#00EAFF"/>
</linearGradient>
<linearGradient id="paint1_linear_145_2" x1="122.261" y1="137.397" x2="122.261" y2="42" gradientUnits="userSpaceOnUse">
<stop offset="0.475962" stop-color="#0084F1"/>
<stop offset="1" stop-color="#00EAFF"/>
</linearGradient>
<linearGradient id="paint2_linear_145_2" x1="157.76" y1="9.13187" x2="76.6783" y2="100.058" gradientUnits="userSpaceOnUse">
<stop offset="0.75" stop-color="#0084F1"/>
<stop offset="1" stop-color="#00EAFF"/>
</linearGradient>
</defs>
</svg>
